<?xml version="1.0" encoding="UTF-8" standalone="no"?>
<!DOCTYPE svg PUBLIC "-//W3C//DTD SVG 1.1//EN"
 "http://www.w3.org/Graphics/SVG/1.1/DTD/svg11.dtd">
<!-- Generated by graphviz version 2.38.0 (20140413.2041)
 -->
<!-- Title: Tree Pages: 1 -->
<svg width="1032pt" height="477pt"
 viewBox="0.00 0.00 1032.00 477.00" xmlns="http://www.w3.org/2000/svg" xmlns:xlink="http://www.w3.org/1999/xlink">
<g id="graph0" class="graph" transform="scale(1 1) rotate(0) translate(4 473)">
<title>Tree</title>
<polygon fill="white" stroke="none" points="-4,4 -4,-473 1028,-473 1028,4 -4,4"/>
<!-- 0 -->
<g id="node1" class="node"><title>0</title>
<polygon fill="#399de5" fill-opacity="0.403922" stroke="black" points="637,-469 490,-469 490,-401 637,-401 637,-469"/>
<text text-anchor="middle" x="563.5" y="-453.8" font-family="Times New Roman,serif" font-size="14.00">worst radius &lt;= 16.795</text>
<text text-anchor="middle" x="563.5" y="-438.8" font-family="Times New Roman,serif" font-size="14.00">samples = 426</text>
<text text-anchor="middle" x="563.5" y="-423.8" font-family="Times New Roman,serif" font-size="14.00">value = [159, 267]</text>
<text text-anchor="middle" x="563.5" y="-408.8" font-family="Times New Roman,serif" font-size="14.00">class = benign</text>
</g>
<!-- 1 -->
<g id="node2" class="node"><title>1</title>
<polygon fill="#399de5" fill-opacity="0.901961" stroke="black" points="563,-365 372,-365 372,-297 563,-297 563,-365"/>
<text text-anchor="middle" x="467.5" y="-349.8" font-family="Times New Roman,serif" font-size="14.00">worst concave points &lt;= 0.136</text>
<text text-anchor="middle" x="467.5" y="-334.8" font-family="Times New Roman,serif" font-size="14.00">samples = 284</text>
<text text-anchor="middle" x="467.5" y="-319.8" font-family="Times New Roman,serif" font-size="14.00">value = [25, 259]</text>
<text text-anchor="middle" x="467.5" y="-304.8" font-family="Times New Roman,serif" font-size="14.00">class = benign</text>
</g>
<!-- 0&#45;&gt;1 -->
<g id="edge1" class="edge"><title>0&#45;&gt;1</title>
<path fill="none" stroke="black" d="M532.332,-400.884C523.864,-391.887 514.597,-382.041 505.785,-372.678"/>
<polygon fill="black" stroke="black" points="508.243,-370.183 498.841,-365.299 503.146,-374.98 508.243,-370.183"/>
<text text-anchor="middle" x="498.083" y="-386.588" font-family="Times New Roman,serif" font-size="14.00">True</text>
</g>
<!-- 14 -->
<g id="node15" class="node"><title>14</title>
<polygon fill="#e58139" fill-opacity="0.941176" stroke="black" points="730.5,-365 590.5,-365 590.5,-297 730.5,-297 730.5,-365"/>
<text text-anchor="middle" x="660.5" y="-349.8" font-family="Times New Roman,serif" font-size="14.00">texture error &lt;= 0.473</text>
<text text-anchor="middle" x="660.5" y="-334.8" font-family="Times New Roman,serif" font-size="14.00">samples = 142</text>
<text text-anchor="middle" x="660.5" y="-319.8" font-family="Times New Roman,serif" font-size="14.00">value = [134, 8]</text>
<text text-anchor="middle" x="660.5" y="-304.8" font-family="Times New Roman,serif" font-size="14.00">class = malignant</text>
</g>
<!-- 0&#45;&gt;14 -->
<g id="edge14" class="edge"><title>0&#45;&gt;14</title>
<path fill="none" stroke="black" d="M594.993,-400.884C603.549,-391.887 612.912,-382.041 621.816,-372.678"/>
<polygon fill="black" stroke="black" points="624.478,-374.958 628.833,-365.299 619.405,-370.134 624.478,-374.958"/>
<text text-anchor="middle" x="629.461" y="-386.591" font-family="Times New Roman,serif" font-size="14.00">False</text>
</g>
<!-- 2 -->
<g id="node3" class="node"><title>2</title>
<polygon fill="#399de5" fill-opacity="0.984314" stroke="black" points="355.5,-261 219.5,-261 219.5,-193 355.5,-193 355.5,-261"/>
<text text-anchor="middle" x="287.5" y="-245.8" font-family="Times New Roman,serif" font-size="14.00">radius error &lt;= 1.048</text>
<text text-anchor="middle" x="287.5" y="-230.8" font-family="Times New Roman,serif" font-size="14.00">samples = 252</text>
<text text-anchor="middle" x="287.5" y="-215.8" font-family="Times New Roman,serif" font-size="14.00">value = [4, 248]</text>
<text text-anchor="middle" x="287.5" y="-200.8" font-family="Times New Roman,serif" font-size="14.00">class = benign</text>
</g>
<!-- 1&#45;&gt;2 -->
<g id="edge2" class="edge"><title>1&#45;&gt;2</title>
<path fill="none" stroke="black" d="M409.059,-296.884C391.838,-287.125 372.852,-276.366 355.106,-266.31"/>
<polygon fill="black" stroke="black" points="356.381,-263.01 345.955,-261.125 352.93,-269.1 356.381,-263.01"/>
</g>
<!-- 7 -->
<g id="node8" class="node"><title>7</title>
<polygon fill="#e58139" fill-opacity="0.474510" stroke="black" points="539.5,-261 395.5,-261 395.5,-193 539.5,-193 539.5,-261"/>
<text text-anchor="middle" x="467.5" y="-245.8" font-family="Times New Roman,serif" font-size="14.00">worst texture &lt;= 25.62</text>
<text text-anchor="middle" x="467.5" y="-230.8" font-family="Times New Roman,serif" font-size="14.00">samples = 32</text>
<text text-anchor="middle" x="467.5" y="-215.8" font-family="Times New Roman,serif" font-size="14.00">value = [21, 11]</text>
<text text-anchor="middle" x="467.5" y="-200.8" font-family="Times New Roman,serif" font-size="14.00">class = malignant</text>
</g>
<!-- 1&#45;&gt;7 -->
<g id="edge7" class="edge"><title>1&#45;&gt;7</title>
<path fill="none" stroke="black" d="M467.5,-296.884C467.5,-288.778 467.5,-279.982 467.5,-271.472"/>
<polygon fill="black" stroke="black" points="471,-271.299 467.5,-261.299 464,-271.299 471,-271.299"/>
</g>
<!-- 3 -->
<g id="node4" class="node"><title>3</title>
<polygon fill="#399de5" fill-opacity="0.988235" stroke="black" points="213,-157 44,-157 44,-89 213,-89 213,-157"/>
<text text-anchor="middle" x="128.5" y="-141.8" font-family="Times New Roman,serif" font-size="14.00">smoothness error &lt;= 0.003</text>
<text text-anchor="middle" x="128.5" y="-126.8" font-family="Times New Roman,serif" font-size="14.00">samples = 251</text>
<text text-anchor="middle" x="128.5" y="-111.8" font-family="Times New Roman,serif" font-size="14.00">value = [3, 248]</text>
<text text-anchor="middle" x="128.5" y="-96.8" font-family="Times New Roman,serif" font-size="14.00">class = benign</text>
</g>
<!-- 2&#45;&gt;3 -->
<g id="edge3" class="edge"><title>2&#45;&gt;3</title>
<path fill="none" stroke="black" d="M235.877,-192.884C220.805,-183.214 204.202,-172.563 188.651,-162.587"/>
<polygon fill="black" stroke="black" points="190.442,-159.578 180.136,-157.125 186.663,-165.47 190.442,-159.578"/>
</g>
<!-- 6 -->
<g id="node7" class="node"><title>6</title>
<polygon fill="#e58139" stroke="black" points="344,-149.5 231,-149.5 231,-96.5 344,-96.5 344,-149.5"/>
<text text-anchor="middle" x="287.5" y="-134.3" font-family="Times New Roman,serif" font-size="14.00">samples = 1</text>
<text text-anchor="middle" x="287.5" y="-119.3" font-family="Times New Roman,serif" font-size="14.00">value = [1, 0]</text>
<text text-anchor="middle" x="287.5" y="-104.3" font-family="Times New Roman,serif" font-size="14.00">class = malignant</text>
</g>
<!-- 2&#45;&gt;6 -->
<g id="edge6" class="edge"><title>2&#45;&gt;6</title>
<path fill="none" stroke="black" d="M287.5,-192.884C287.5,-182.326 287.5,-170.597 287.5,-159.854"/>
<polygon fill="black" stroke="black" points="291,-159.52 287.5,-149.52 284,-159.52 291,-159.52"/>
</g>
<!-- 4 -->
<g id="node5" class="node"><title>4</title>
<polygon fill="#399de5" fill-opacity="0.666667" stroke="black" points="97,-53 0,-53 0,-0 97,-0 97,-53"/>
<text text-anchor="middle" x="48.5" y="-37.8" font-family="Times New Roman,serif" font-size="14.00">samples = 4</text>
<text text-anchor="middle" x="48.5" y="-22.8" font-family="Times New Roman,serif" font-size="14.00">value = [1, 3]</text>
<text text-anchor="middle" x="48.5" y="-7.8" font-family="Times New Roman,serif" font-size="14.00">class = benign</text>
</g>
<!-- 3&#45;&gt;4 -->
<g id="edge4" class="edge"><title>3&#45;&gt;4</title>
<path fill="none" stroke="black" d="M100.52,-88.9485C92.853,-79.892 84.5366,-70.0682 76.8492,-60.9875"/>
<polygon fill="black" stroke="black" points="79.4203,-58.6076 70.2877,-53.2367 74.0776,-63.1305 79.4203,-58.6076"/>
</g>
<!-- 5 -->
<g id="node6" class="node"><title>5</title>
<polygon fill="#399de5" fill-opacity="0.992157" stroke="black" points="219.5,-53 115.5,-53 115.5,-0 219.5,-0 219.5,-53"/>
<text text-anchor="middle" x="167.5" y="-37.8" font-family="Times New Roman,serif" font-size="14.00">samples = 247</text>
<text text-anchor="middle" x="167.5" y="-22.8" font-family="Times New Roman,serif" font-size="14.00">value = [2, 245]</text>
<text text-anchor="middle" x="167.5" y="-7.8" font-family="Times New Roman,serif" font-size="14.00">class = benign</text>
</g>
<!-- 3&#45;&gt;5 -->
<g id="edge5" class="edge"><title>3&#45;&gt;5</title>
<path fill="none" stroke="black" d="M142.14,-88.9485C145.651,-80.4408 149.442,-71.2562 152.995,-62.6464"/>
<polygon fill="black" stroke="black" points="156.299,-63.8157 156.879,-53.2367 149.828,-61.1452 156.299,-63.8157"/>
</g>
<!-- 8 -->
<g id="node9" class="node"><title>8</title>
<polygon fill="#399de5" fill-opacity="0.666667" stroke="black" points="535,-157 362,-157 362,-89 535,-89 535,-157"/>
<text text-anchor="middle" x="448.5" y="-141.8" font-family="Times New Roman,serif" font-size="14.00">worst smoothness &lt;= 0.179</text>
<text text-anchor="middle" x="448.5" y="-126.8" font-family="Times New Roman,serif" font-size="14.00">samples = 12</text>
<text text-anchor="middle" x="448.5" y="-111.8" font-family="Times New Roman,serif" font-size="14.00">value = [3, 9]</text>
<text text-anchor="middle" x="448.5" y="-96.8" font-family="Times New Roman,serif" font-size="14.00">class = benign</text>
</g>
<!-- 7&#45;&gt;8 -->
<g id="edge8" class="edge"><title>7&#45;&gt;8</title>
<path fill="none" stroke="black" d="M461.331,-192.884C459.805,-184.689 458.147,-175.789 456.546,-167.192"/>
<polygon fill="black" stroke="black" points="459.975,-166.489 454.703,-157.299 453.093,-167.771 459.975,-166.489"/>
</g>
<!-- 11 -->
<g id="node12" class="node"><title>11</title>
<polygon fill="#e58139" fill-opacity="0.890196" stroke="black" points="714,-157 553,-157 553,-89 714,-89 714,-157"/>
<text text-anchor="middle" x="633.5" y="-141.8" font-family="Times New Roman,serif" font-size="14.00">worst symmetry &lt;= 0.268</text>
<text text-anchor="middle" x="633.5" y="-126.8" font-family="Times New Roman,serif" font-size="14.00">samples = 20</text>
<text text-anchor="middle" x="633.5" y="-111.8" font-family="Times New Roman,serif" font-size="14.00">value = [18, 2]</text>
<text text-anchor="middle" x="633.5" y="-96.8" font-family="Times New Roman,serif" font-size="14.00">class = malignant</text>
</g>
<!-- 7&#45;&gt;11 -->
<g id="edge11" class="edge"><title>7&#45;&gt;11</title>
<path fill="none" stroke="black" d="M521.395,-192.884C537.131,-183.214 554.465,-172.563 570.701,-162.587"/>
<polygon fill="black" stroke="black" points="572.903,-165.342 579.591,-157.125 569.239,-159.378 572.903,-165.342"/>
</g>
<!-- 9 -->
<g id="node10" class="node"><title>9</title>
<polygon fill="#399de5" fill-opacity="0.890196" stroke="black" points="374,-53 277,-53 277,-0 374,-0 374,-53"/>
<text text-anchor="middle" x="325.5" y="-37.8" font-family="Times New Roman,serif" font-size="14.00">samples = 10</text>
<text text-anchor="middle" x="325.5" y="-22.8" font-family="Times New Roman,serif" font-size="14.00">value = [1, 9]</text>
<text text-anchor="middle" x="325.5" y="-7.8" font-family="Times New Roman,serif" font-size="14.00">class = benign</text>
</g>
<!-- 8&#45;&gt;9 -->
<g id="edge9" class="edge"><title>8&#45;&gt;9</title>
<path fill="none" stroke="black" d="M405.481,-88.9485C392.978,-79.3431 379.353,-68.8747 366.949,-59.345"/>
<polygon fill="black" stroke="black" points="369.061,-56.5537 358.999,-53.2367 364.796,-62.1046 369.061,-56.5537"/>
</g>
<!-- 10 -->
<g id="node11" class="node"><title>10</title>
<polygon fill="#e58139" stroke="black" points="505,-53 392,-53 392,-0 505,-0 505,-53"/>
<text text-anchor="middle" x="448.5" y="-37.8" font-family="Times New Roman,serif" font-size="14.00">samples = 2</text>
<text text-anchor="middle" x="448.5" y="-22.8" font-family="Times New Roman,serif" font-size="14.00">value = [2, 0]</text>
<text text-anchor="middle" x="448.5" y="-7.8" font-family="Times New Roman,serif" font-size="14.00">class = malignant</text>
</g>
<!-- 8&#45;&gt;10 -->
<g id="edge10" class="edge"><title>8&#45;&gt;10</title>
<path fill="none" stroke="black" d="M448.5,-88.9485C448.5,-80.7153 448.5,-71.848 448.5,-63.4814"/>
<polygon fill="black" stroke="black" points="452,-63.2367 448.5,-53.2367 445,-63.2367 452,-63.2367"/>
</g>
<!-- 12 -->
<g id="node13" class="node"><title>12</title>
<polygon fill="#399de5" fill-opacity="0.498039" stroke="black" points="620,-53 523,-53 523,-0 620,-0 620,-53"/>
<text text-anchor="middle" x="571.5" y="-37.8" font-family="Times New Roman,serif" font-size="14.00">samples = 3</text>
<text text-anchor="middle" x="571.5" y="-22.8" font-family="Times New Roman,serif" font-size="14.00">value = [1, 2]</text>
<text text-anchor="middle" x="571.5" y="-7.8" font-family="Times New Roman,serif" font-size="14.00">class = benign</text>
</g>
<!-- 11&#45;&gt;12 -->
<g id="edge12" class="edge"><title>11&#45;&gt;12</title>
<path fill="none" stroke="black" d="M611.815,-88.9485C606.054,-80.1664 599.819,-70.6629 594.014,-61.815"/>
<polygon fill="black" stroke="black" points="596.797,-59.6779 588.385,-53.2367 590.945,-63.5178 596.797,-59.6779"/>
</g>
<!-- 13 -->
<g id="node14" class="node"><title>13</title>
<polygon fill="#e58139" stroke="black" points="751,-53 638,-53 638,-0 751,-0 751,-53"/>
<text text-anchor="middle" x="694.5" y="-37.8" font-family="Times New Roman,serif" font-size="14.00">samples = 17</text>
<text text-anchor="middle" x="694.5" y="-22.8" font-family="Times New Roman,serif" font-size="14.00">value = [17, 0]</text>
<text text-anchor="middle" x="694.5" y="-7.8" font-family="Times New Roman,serif" font-size="14.00">class = malignant</text>
</g>
<!-- 11&#45;&gt;13 -->
<g id="edge13" class="edge"><title>11&#45;&gt;13</title>
<path fill="none" stroke="black" d="M654.835,-88.9485C660.504,-80.1664 666.638,-70.6629 672.35,-61.815"/>
<polygon fill="black" stroke="black" points="675.404,-63.5365 677.887,-53.2367 669.523,-59.7402 675.404,-63.5365"/>
</g>
<!-- 15 -->
<g id="node16" class="node"><title>15</title>
<polygon fill="#399de5" stroke="black" points="709,-253.5 612,-253.5 612,-200.5 709,-200.5 709,-253.5"/>
<text text-anchor="middle" x="660.5" y="-238.3" font-family="Times New Roman,serif" font-size="14.00">samples = 5</text>
<text text-anchor="middle" x="660.5" y="-223.3" font-family="Times New Roman,serif" font-size="14.00">value = [0, 5]</text>
<text text-anchor="middle" x="660.5" y="-208.3" font-family="Times New Roman,serif" font-size="14.00">class = benign</text>
</g>
<!-- 14&#45;&gt;15 -->
<g id="edge15" class="edge"><title>14&#45;&gt;15</title>
<path fill="none" stroke="black" d="M660.5,-296.884C660.5,-286.326 660.5,-274.597 660.5,-263.854"/>
<polygon fill="black" stroke="black" points="664,-263.52 660.5,-253.52 657,-263.52 664,-263.52"/>
</g>
<!-- 16 -->
<g id="node17" class="node"><title>16</title>
<polygon fill="#e58139" fill-opacity="0.976471" stroke="black" points="898,-261 737,-261 737,-193 898,-193 898,-261"/>
<text text-anchor="middle" x="817.5" y="-245.8" font-family="Times New Roman,serif" font-size="14.00">worst concavity &lt;= 0.191</text>
<text text-anchor="middle" x="817.5" y="-230.8" font-family="Times New Roman,serif" font-size="14.00">samples = 137</text>
<text text-anchor="middle" x="817.5" y="-215.8" font-family="Times New Roman,serif" font-size="14.00">value = [134, 3]</text>
<text text-anchor="middle" x="817.5" y="-200.8" font-family="Times New Roman,serif" font-size="14.00">class = malignant</text>
</g>
<!-- 14&#45;&gt;16 -->
<g id="edge16" class="edge"><title>14&#45;&gt;16</title>
<path fill="none" stroke="black" d="M711.473,-296.884C726.356,-287.214 742.75,-276.563 758.106,-266.587"/>
<polygon fill="black" stroke="black" points="760.035,-269.508 766.514,-261.125 756.221,-263.638 760.035,-269.508"/>
</g>
<!-- 17 -->
<g id="node18" class="node"><title>17</title>
<polygon fill="#399de5" fill-opacity="0.333333" stroke="black" points="893,-157 742,-157 742,-89 893,-89 893,-157"/>
<text text-anchor="middle" x="817.5" y="-141.8" font-family="Times New Roman,serif" font-size="14.00">worst texture &lt;= 30.975</text>
<text text-anchor="middle" x="817.5" y="-126.8" font-family="Times New Roman,serif" font-size="14.00">samples = 5</text>
<text text-anchor="middle" x="817.5" y="-111.8" font-family="Times New Roman,serif" font-size="14.00">value = [2, 3]</text>
<text text-anchor="middle" x="817.5" y="-96.8" font-family="Times New Roman,serif" font-size="14.00">class = benign</text>
</g>
<!-- 16&#45;&gt;17 -->
<g id="edge17" class="edge"><title>16&#45;&gt;17</title>
<path fill="none" stroke="black" d="M817.5,-192.884C817.5,-184.778 817.5,-175.982 817.5,-167.472"/>
<polygon fill="black" stroke="black" points="821,-167.299 817.5,-157.299 814,-167.299 821,-167.299"/>
</g>
<!-- 20 -->
<g id="node21" class="node"><title>20</title>
<polygon fill="#e58139" stroke="black" points="1024,-149.5 911,-149.5 911,-96.5 1024,-96.5 1024,-149.5"/>
<text text-anchor="middle" x="967.5" y="-134.3" font-family="Times New Roman,serif" font-size="14.00">samples = 132</text>
<text text-anchor="middle" x="967.5" y="-119.3" font-family="Times New Roman,serif" font-size="14.00">value = [132, 0]</text>
<text text-anchor="middle" x="967.5" y="-104.3" font-family="Times New Roman,serif" font-size="14.00">class = malignant</text>
</g>
<!-- 16&#45;&gt;20 -->
<g id="edge20" class="edge"><title>16&#45;&gt;20</title>
<path fill="none" stroke="black" d="M866.201,-192.884C883.991,-180.786 904.043,-167.151 921.583,-155.224"/>
<polygon fill="black" stroke="black" points="923.67,-158.037 929.971,-149.52 919.733,-152.249 923.67,-158.037"/>
</g>
<!-- 18 -->
<g id="node19" class="node"><title>18</title>
<polygon fill="#399de5" stroke="black" points="866,-53 769,-53 769,-0 866,-0 866,-53"/>
<text text-anchor="middle" x="817.5" y="-37.8" font-family="Times New Roman,serif" font-size="14.00">samples = 3</text>
<text text-anchor="middle" x="817.5" y="-22.8" font-family="Times New Roman,serif" font-size="14.00">value = [0, 3]</text>
<text text-anchor="middle" x="817.5" y="-7.8" font-family="Times New Roman,serif" font-size="14.00">class = benign</text>
</g>
<!-- 17&#45;&gt;18 -->
<g id="edge18" class="edge"><title>17&#45;&gt;18</title>
<path fill="none" stroke="black" d="M817.5,-88.9485C817.5,-80.7153 817.5,-71.848 817.5,-63.4814"/>
<polygon fill="black" stroke="black" points="821,-63.2367 817.5,-53.2367 814,-63.2367 821,-63.2367"/>
</g>
<!-- 19 -->
<g id="node20" class="node"><title>19</title>
<polygon fill="#e58139" stroke="black" points="997,-53 884,-53 884,-0 997,-0 997,-53"/>
<text text-anchor="middle" x="940.5" y="-37.8" font-family="Times New Roman,serif" font-size="14.00">samples = 2</text>
<text text-anchor="middle" x="940.5" y="-22.8" font-family="Times New Roman,serif" font-size="14.00">value = [2, 0]</text>
<text text-anchor="middle" x="940.5" y="-7.8" font-family="Times New Roman,serif" font-size="14.00">class = malignant</text>
</g>
<!-- 17&#45;&gt;19 -->
<g id="edge19" class="edge"><title>17&#45;&gt;19</title>
<path fill="none" stroke="black" d="M860.519,-88.9485C873.022,-79.3431 886.647,-68.8747 899.051,-59.345"/>
<polygon fill="black" stroke="black" points="901.204,-62.1046 907.001,-53.2367 896.939,-56.5537 901.204,-62.1046"/>
</g>
</g>
</svg>
